<?xml version="1.0" encoding="UTF-8" standalone="no"?>
<!-- Created with Inkscape (http://www.inkscape.org/) -->

<svg
   width="87.856163mm"
   height="38.909515mm"
   viewBox="0 0 87.856163 38.909515"
   version="1.1"
   id="svg5"
   xml:space="preserve"
   inkscape:version="1.2.1 (9c6d41e410, 2022-07-14)"
   sodipodi:docname="Buildings.svg"
   xmlns:inkscape="http://www.inkscape.org/namespaces/inkscape"
   xmlns:sodipodi="http://sodipodi.sourceforge.net/DTD/sodipodi-0.dtd"
   xmlns="http://www.w3.org/2000/svg"
   xmlns:svg="http://www.w3.org/2000/svg"><sodipodi:namedview
     id="namedview7"
     pagecolor="#000000"
     bordercolor="#000000"
     borderopacity="0.25"
     inkscape:showpageshadow="2"
     inkscape:pageopacity="0"
     inkscape:pagecheckerboard="0"
     inkscape:deskcolor="#d1d1d1"
     inkscape:document-units="px"
     showgrid="true"
     inkscape:zoom="0.7071068"
     inkscape:cx="296.98484"
     inkscape:cy="533.1585"
     inkscape:window-width="1920"
     inkscape:window-height="1009"
     inkscape:window-x="3832"
     inkscape:window-y="-8"
     inkscape:window-maximized="1"
     inkscape:current-layer="layer3"
     showguides="false"><sodipodi:guide
       position="-113.82406,287.12811"
       orientation="0,793.70079"
       id="guide4793"
       inkscape:locked="false" /><sodipodi:guide
       position="96.175939,287.12811"
       orientation="1122.5197,0"
       id="guide4795"
       inkscape:locked="false" /><sodipodi:guide
       position="44.925939,-9.8718943"
       orientation="0,-793.70079"
       id="guide4797"
       inkscape:locked="false" /><sodipodi:guide
       position="-113.82406,-9.8718943"
       orientation="-1122.5197,0"
       id="guide4799"
       inkscape:locked="false" /></sodipodi:namedview><defs
     id="defs2" /><g
     inkscape:groupmode="layer"
     id="layer3"
     inkscape:label="Layer 3"
     transform="translate(-113.82406,-248.21859)"><g
       id="g13984"
       transform="translate(-3.8597858,48.683332)"
       inkscape:export-filename="FishPondStudioLetter"
       inkscape:export-xdpi="46.36903"
       inkscape:export-ydpi="46.36903"><path
         style="opacity:1;fill:#ffffff;stroke-width:0.264583"
         id="path13795"
         d="m 120.64603,203.97928 c 0.17798,-0.0318 0.35885,-0.0503 0.53396,-0.0953 0.27681,-0.0711 0.54508,-0.17221 0.8194,-0.25237 0.4129,-0.12066 0.82728,-0.23624 1.24212,-0.35005 1.619,-0.44417 3.2503,-0.83391 4.86972,-1.2768 1.76748,-0.93691 0.94903,-0.44686 2.46851,-1.44797 0.4246,-0.0759 0.31729,-0.67635 -0.10731,-0.60047 v 0 c -1.82099,-0.40393 -0.85652,-0.25126 -2.89902,-0.42107 -0.58019,0.0958 -1.16396,0.17198 -1.74057,0.28739 -0.54131,0.10834 -2.7991,0.66616 -3.36259,0.82154 -0.51799,0.14284 -1.65954,0.47949 -2.2271,0.73477 -0.17163,0.0772 -0.32437,0.19088 -0.48655,0.28633 -1.63626,0.62892 -0.74683,2.94294 0.88943,2.31402 z" /><path
         style="opacity:1;fill:#ffffff;stroke-width:0.264583"
         id="path13797"
         d="m 120.6279,202.24311 c -0.10384,0.20764 -0.24725,0.39985 -0.31153,0.62294 -0.0863,0.29959 -0.26087,2.00071 -0.27689,2.18856 -0.15925,1.86675 -0.19934,3.74035 -0.25099,5.61218 0.0381,1.97445 -0.18773,4.03613 0.10045,6.00075 0.0368,0.25098 0.60439,2.47667 0.70243,2.86492 0.003,0.44865 0.63749,0.4444 0.63448,-0.004 v 0 c 0.10117,-0.41922 0.19958,-0.83913 0.3035,-1.25768 0.13052,-0.52561 0.30988,-1.04071 0.39981,-1.57477 0.33035,-1.96186 0.18289,-3.97437 0.32704,-5.94935 0.0679,-1.83599 0.14739,-3.67095 0.22977,-5.50631 0.018,-0.40067 0.0364,-0.80133 0.0513,-1.20213 0.0114,-0.30856 0.0572,-0.61855 0.0276,-0.92591 -0.0204,-0.21271 -0.11728,-0.41097 -0.17592,-0.61646 0.17853,-1.24526 -1.58252,-1.49775 -1.76106,-0.25249 z" /><path
         style="opacity:1;fill:#ffffff;stroke-width:0.264583"
         id="path13799"
         d="m 119.36171,212.47462 c 0.30578,-0.0743 0.61369,-0.14045 0.91736,-0.22305 0.42999,-0.11696 0.85439,-0.25362 1.28302,-0.37548 2.15738,-0.6134 1.04833,-0.28018 3.31355,-0.90248 0.58279,-0.1601 1.19081,-0.25103 1.74518,-0.49173 0.5504,-0.23897 1.02584,-0.62274 1.53876,-0.93411 0.77966,-0.16026 0.55302,-1.26286 -0.22664,-1.1026 v 0 c -0.61182,-0.0802 -1.2186,-0.25575 -1.83547,-0.24054 -0.62129,0.0153 -1.22631,0.20468 -1.83481,0.33102 -0.88517,0.18378 -2.49041,0.59868 -3.38954,0.82773 -0.43567,0.11099 -0.87371,0.21319 -1.3066,0.33458 -0.27445,0.077 -0.54303,0.17347 -0.81455,0.26021 -1.7794,0.43115 -1.16966,2.9476 0.60974,2.51645 z" /><path
         style="opacity:1;fill:#ffffff;stroke-width:0.264583"
         id="path13807"
         d="m 132.39356,208.15165 c -0.54838,1.66799 -0.67173,3.43143 -0.79466,5.1709 -0.0356,0.58167 -0.1242,1.8765 -0.12346,2.46758 5.3e-4,0.37608 -0.073,0.77169 0.0498,1.12714 0.14262,0.4127 0.47886,0.73029 0.71828,1.09543 -0.0211,0.40297 0.54879,0.43279 0.56988,0.0298 v 0 c 0.27613,-0.3362 0.64339,-0.61485 0.8284,-1.00862 0.1613,-0.34332 0.1332,-0.74747 0.17387,-1.12461 0.004,-0.0395 0.15118,-2.39985 0.15208,-2.41424 0.11913,-1.58704 0.25278,-3.1737 0.43693,-4.75405 0.41673,-1.42207 -1.59438,-2.01142 -2.01112,-0.58935 z" /><path
         style="opacity:1;fill:#ffffff;stroke-width:0.264583"
         id="path13809"
         d="m 143.93601,207.72588 c -1.08883,-0.47 -2.50356,-0.50699 -3.57365,0.0592 -0.25474,0.13477 -0.47249,0.33013 -0.70873,0.4952 -0.17963,0.21194 -0.39533,0.39796 -0.53888,0.63582 -0.54936,0.91025 -0.47117,1.788 0.13069,2.65802 0.31609,0.45693 0.99513,0.90627 1.43198,1.22971 0.89236,0.65852 2.42402,1.56493 2.69055,2.74335 0.0295,0.13038 -0.002,0.26734 -0.003,0.40101 -0.0538,0.0712 -0.0881,0.16285 -0.16145,0.21369 -0.0589,0.0408 -0.14094,0.0265 -0.21042,0.0439 -0.93783,0.23614 0.73286,-0.13169 -0.94527,0.17915 -2.56987,0.47604 0.26813,0.0284 -2.5619,0.4489 -0.45004,0.1535 -0.90008,0.30701 -1.35012,0.46052 -0.87663,-0.0846 -0.99627,1.15515 -0.11963,1.23974 v 0 c 0.50248,0.24543 1.00497,0.49086 1.50745,0.73628 1.29297,0.11633 2.19589,0.30657 3.48892,-0.0183 1.57555,-0.3958 2.82442,-1.22513 3.06678,-2.93085 0.0529,-0.37256 -0.0581,-0.75036 -0.0872,-1.12555 -0.13036,-0.31759 -0.22813,-0.65061 -0.39108,-0.95278 -0.78198,-1.44997 -2.26277,-2.34878 -3.52562,-3.32398 -0.17666,-0.13127 -0.35451,-0.26094 -0.52997,-0.39381 -0.093,-0.0704 -0.16297,-0.18443 -0.27525,-0.21597 -0.0692,-0.0195 -0.0852,0.1659 -0.15526,0.1497 -0.0956,-0.0221 0.007,-0.19847 0.007,-0.20047 0.41827,-0.40544 1.13429,-0.42881 1.65915,-0.24107 1.6203,0.81661 2.77516,-1.47484 1.15486,-2.29145 z" /><path
         style="opacity:1;fill:#ffffff;stroke-width:0.264583"
         id="path13817"
         d="m 149.21271,209.38252 c -0.0161,0.17996 -0.0401,0.35937 -0.0484,0.53985 -0.0281,0.60881 -0.0214,1.21874 -0.0395,1.82792 -0.036,1.21694 -0.0879,2.43334 -0.1383,3.64974 -0.0309,0.80841 -0.0661,1.51082 -0.0653,2.31686 2.6e-4,0.317 -0.0663,0.64608 0.0211,0.95078 0.0858,0.29875 0.32075,0.53248 0.48113,0.79871 -0.0682,0.60591 0.78872,0.70233 0.85689,0.0964 v 0 c 0.21674,-0.23471 0.50348,-0.42035 0.65022,-0.70413 0.14825,-0.28669 0.14508,-0.62922 0.20341,-0.94666 0.18904,-1.02879 0.19811,-1.32025 0.31053,-2.38538 0.0759,-1.2368 0.13877,-2.47282 0.17862,-3.71139 0.013,-0.40377 0.0454,-1.44185 0.0302,-1.89287 -0.006,-0.18057 -0.0323,-0.35989 -0.0485,-0.53985 0,-1.6915 -2.39214,-1.6915 -2.39214,0 z" /><path
         style="opacity:1;fill:#ffffff;stroke-width:0.264583"
         id="path13833"
         d="m 133.80879,206.25388 c 0.57417,-0.36038 1.10584,-0.78376 1.65178,-1.18476 0.17893,-0.13143 0.41144,-0.21262 0.53448,-0.39742 0.16418,-0.24657 0.19303,-0.56013 0.28955,-0.8402 0.11308,-0.31668 0.22616,-0.63337 0.33924,-0.95006 0.12861,-0.0586 0.0457,-0.2405 -0.0829,-0.18189 v 0 c -0.3439,-0.10843 -0.6878,-0.21687 -1.0317,-0.32531 -0.3595,-0.0374 -0.72169,-0.16998 -1.0785,-0.11231 -0.26259,0.0424 -0.46713,0.25541 -0.69143,0.39839 -0.68314,0.43543 -1.34968,0.94197 -1.86317,1.57244 -1.42914,1.36658 0.5035,3.3877 1.93264,2.02112 z" /><path
         style="opacity:1;fill:#ffffff;stroke-width:0.264583"
         id="path13837"
         d="m 166.93986,204.03719 c -0.0159,0.20914 -0.0395,0.41784 -0.0476,0.62744 -0.0253,0.66344 -0.009,1.32785 -0.0218,1.99166 -0.0245,1.30719 -0.078,2.6133 -0.13647,3.9193 -0.0246,0.49127 -0.0473,0.98264 -0.0737,1.47382 -0.0628,1.16838 -0.0987,1.7384 -0.18296,2.90048 -0.0583,0.80396 -0.15271,1.60557 -0.18923,2.41082 -0.0137,0.30166 -10e-4,0.60394 -0.002,0.9059 0.23311,0.99714 -0.035,0.5611 0.93924,1.21487 -0.0363,0.18838 0.23013,0.23968 0.26641,0.0513 v 0 c 1.17893,-0.3774 0.78507,-0.009 1.28738,-0.9815 0.0689,-0.30674 0.15524,-0.61008 0.20661,-0.92023 0.10483,-0.63303 0.2046,-1.88976 0.24886,-2.49921 0.10776,-1.48389 0.17578,-2.9706 0.25001,-4.45639 0.0633,-2.25204 0.10477,-4.52213 -0.18207,-6.76109 -0.0868,-1.67076 -2.44966,-1.54794 -2.36281,0.12283 z" /><path
         style="opacity:1;fill:#ffffff;stroke-width:0.264583"
         id="path13839"
         d="m 167.54736,203.85259 c 0.041,-0.0454 0.0739,-0.0997 0.12296,-0.13622 0.0668,-0.0497 0.14527,-0.0814 0.21965,-0.11879 0.88092,-0.44264 1.75446,-0.60411 2.72371,-0.74411 0.6225,-0.009 1.68506,-0.009 2.1669,0.50335 0.13468,0.14323 0.16776,0.35604 0.23802,0.53966 0.35127,0.91792 0.25923,0.69121 0.37663,1.70286 -0.0999,0.67612 -0.0739,1.08591 -0.49304,1.66116 -0.1721,0.23618 -0.4057,0.4243 -0.63922,0.59999 -1.21053,0.91075 -2.37705,1.12223 -3.81948,1.45419 -0.86092,0.4085 -1.9121,0.10773 -2.78691,0.45518 -0.37822,0.15023 -0.66455,0.46996 -0.99682,0.70494 -0.53134,-0.0486 -0.60005,0.70284 -0.0687,0.75143 v 0 c 0.37887,0.3 0.68497,0.72806 1.13661,0.90001 0.71136,0.27083 2.68903,0.0251 3.32964,-0.0248 1.46216,-0.31064 2.57335,-0.44456 3.92507,-1.15653 1.1538,-0.60773 2.13531,-1.49998 2.75134,-2.66273 0.63921,-1.20652 0.5025,-1.93156 0.52702,-3.2304 -0.28938,-1.23258 -0.32172,-1.96223 -1.1254,-3.00398 -0.95885,-1.24291 -2.16208,-1.72467 -3.67618,-1.83874 -0.41303,-0.0311 -0.82825,0.0154 -1.24238,0.0231 -0.39929,0.0625 -0.80299,0.10158 -1.19788,0.18764 -1.2819,0.27937 -2.58345,0.84329 -3.44084,1.8735 -0.12765,0.15339 -0.21045,0.33913 -0.31567,0.5087 -0.74288,1.61572 1.5421,2.66632 2.28498,1.05059 z" /><path
         style="opacity:1;fill:#ffffff;stroke-width:0.264583"
         id="path13841"
         d="m 179.02175,207.99571 c -0.1447,0.11072 -0.2998,0.20905 -0.43411,0.33218 -0.88468,0.81108 -1.61587,1.93245 -2.05763,3.04079 -0.15515,0.38925 -0.25328,0.79886 -0.37992,1.19829 -0.0238,0.47876 -0.12052,0.95945 -0.0713,1.43627 0.19478,1.88821 1.58988,3.76517 3.54056,4.08368 0.51423,0.084 1.04112,-0.0443 1.56168,-0.0664 0.4806,-0.20494 0.99394,-0.34574 1.44178,-0.61482 1.56121,-0.93803 2.93306,-3.03291 3.12799,-4.8545 0.0503,-0.4702 -0.0335,-0.94518 -0.0502,-1.41778 -0.14361,-0.40377 -0.20143,-0.84935 -0.43085,-1.21133 -0.27185,-0.42893 -0.63136,-0.81243 -1.04155,-1.11182 -0.9973,-0.72791 -2.71462,-1.06748 -3.85012,-0.44298 -0.36632,0.20146 -0.60086,0.58144 -0.90128,0.87216 -0.13696,0.34047 -0.27391,0.68093 -0.41087,1.02139 -0.14477,0.0956 -0.01,0.30029 0.13513,0.20474 v 0 c 0.28719,0.0605 0.57438,0.12106 0.86156,0.1816 0.86584,0.27503 0.43662,0.19638 1.25141,0.25735 1.02557,0.0767 0.12651,-0.0102 0.99639,0.12548 0.0922,0.0144 0.2045,-0.0283 0.27846,0.0286 0.11636,0.0895 0.15959,0.2464 0.23938,0.3696 0.0489,0.16708 0.14497,0.32715 0.14672,0.50123 0.003,0.2707 -0.06,0.54054 -0.13362,0.80107 -0.3072,1.08788 -0.963,1.98877 -1.95697,2.53368 -0.28537,0.0929 -0.60731,0.25474 -0.92406,0.14146 -0.18935,-0.0677 -0.35498,-0.19694 -0.50301,-0.33304 -0.52088,-0.47887 -0.70963,-1.12688 -0.77938,-1.807 0.0581,-0.2688 0.0891,-0.54488 0.17416,-0.80638 0.24123,-0.74157 0.68948,-1.40389 1.14214,-2.02878 0.10366,-0.1431 0.22055,-0.27664 0.31916,-0.42327 0.0536,-0.0797 0.0909,-0.16934 0.13633,-0.25401 1.24273,-1.00969 -0.18518,-2.76717 -1.42791,-1.75748 z" /><path
         style="opacity:1;fill:#ffffff;stroke-width:0.264583"
         id="path13843"
         d="m 188.04494,218.41688 c 0.37492,-1.73604 0.61827,-3.49717 0.9141,-5.24765 0.0938,-0.52066 0.14854,-0.81352 0.23291,-1.31762 0.0209,-0.12491 0.0692,-0.50339 0.12573,-0.66615 0.009,-0.0265 0.0163,0.0646 -0.004,0.0841 -0.25958,0.25095 -0.54517,0.47352 -0.81776,0.71028 -0.29204,-0.0429 -0.58408,-0.0857 -0.87613,-0.12855 -0.0172,0.005 -0.057,-0.001 -0.0516,0.0161 0.0345,0.10999 0.10521,0.20519 0.1537,0.30976 0.0826,0.17812 0.16186,0.3578 0.23949,0.53816 0.26076,0.60588 0.51328,1.21527 0.77183,1.8221 0.44656,1.017 0.86483,2.04707 1.38318,3.03079 0.27101,0.51432 0.63312,1.28079 1.21335,1.54606 0.44094,0.20159 0.95192,0.18467 1.42787,0.27701 0.43777,-0.22852 0.92982,-0.37444 1.31331,-0.68556 0.5623,-0.45618 1.07653,-1.52262 1.34582,-2.16253 0.52682,-1.25188 0.82758,-2.56676 1.10676,-3.88935 0.10426,-1.66253 0.3029,-0.86089 -0.75981,-2.35826 0.0229,-0.0899 -0.10427,-0.12228 -0.12716,-0.0324 v 0 c -1.63592,0.80935 -1.09247,0.20451 -1.7771,1.67105 -0.13259,0.39669 -0.27044,0.79167 -0.39776,1.19009 -0.31684,0.99155 -0.33775,1.22188 -0.71041,2.14879 -0.0989,0.24587 -0.21928,0.48252 -0.3301,0.72324 -0.0536,0.11647 -0.2163,0.2316 -0.16322,0.34833 0.0485,0.10673 0.23147,0.0375 0.34721,0.0563 0.16639,0.10812 0.36319,0.17984 0.49917,0.32436 0.0343,0.0365 -0.0977,0.0895 -0.13791,0.0596 -0.16659,-0.12409 -0.297,-0.29479 -0.41101,-0.46844 -0.17273,-0.26312 -0.2986,-0.55421 -0.44373,-0.8335 -0.5541,-1.06633 -0.45461,-0.88596 -0.96498,-1.9974 -0.37629,-0.8439 -0.70938,-1.71973 -1.12787,-2.54415 -0.13488,-0.26572 -0.53302,-1.01135 -0.80661,-1.16542 -0.36068,-0.2031 -0.79095,-0.24443 -1.18642,-0.36665 -0.35228,0.25134 -0.74633,0.4526 -1.05683,0.75402 -0.11232,0.10903 -0.12361,0.28821 -0.17063,0.43751 -0.21868,0.69436 -0.2303,1.44696 -0.38675,2.15347 -0.26344,1.67906 -0.46143,3.37384 -0.85297,5.02907 -0.44792,1.75803 2.03832,2.39148 2.48623,0.63345 z" /><path
         style="opacity:1;fill:#ffffff;stroke-width:0.264583"
         id="path13845"
         d="m 198.70606,210.74211 c -0.0355,0.15469 -0.0803,0.30753 -0.10645,0.46409 -0.07,0.41968 -0.13493,1.23006 -0.16514,1.60934 -0.081,1.01685 -0.14365,2.03531 -0.20957,3.05321 -0.0105,0.21767 -0.16066,0.8631 0.17453,1.05597 0.20425,0.11754 0.4618,0.0942 0.69271,0.14124 -0.15523,0.25624 0.20715,0.47576 0.36237,0.21952 v 0 c 0.27183,-0.0205 0.5672,0.0511 0.81548,-0.0614 0.4326,-0.19609 0.39422,-0.88605 0.43443,-1.2102 0.0542,-1.03493 0.10725,-2.0693 0.11345,-3.10595 0.003,-0.47612 0.003,-1.15429 -0.0532,-1.64968 -0.0173,-0.15153 -0.0563,-0.29977 -0.0845,-0.44966 0.047,-1.39593 -1.92713,-1.4624 -1.97414,-0.0665 z" /><path
         style="opacity:1;fill:#ffffff;stroke-width:0.264583"
         id="path13849"
         d="m 198.15632,210.31723 c 0.95248,-0.21481 1.98159,-0.24049 2.8724,0.22376 0.1975,0.10292 0.36841,0.25035 0.55262,0.37553 0.14648,0.16258 0.31861,0.30528 0.43943,0.48774 0.50148,0.75737 0.64708,1.99628 0.31882,2.84282 -0.0795,0.20508 -0.21939,0.38131 -0.32909,0.57197 -0.1641,0.16716 -0.30654,0.35877 -0.4923,0.50149 -0.74063,0.56903 -1.70189,0.83795 -2.59101,1.05738 -0.30047,0.0742 -0.60871,0.11501 -0.90795,0.19396 -0.26559,0.0701 -0.52291,0.16834 -0.78436,0.25251 -0.22138,0.11296 -0.44275,0.22592 -0.66412,0.33889 -1.02238,-0.10153 -1.16596,1.34434 -0.14357,1.44586 v 0 c 0.27158,0.16192 0.54316,0.32383 0.81475,0.48574 0.364,0.0822 0.71997,0.2176 1.09201,0.24668 1.92329,0.15033 4.20554,-0.69771 5.58128,-2.0367 0.37233,-0.36237 0.63162,-0.82512 0.94743,-1.23768 0.1801,-0.47156 0.4268,-0.92281 0.54028,-1.41467 0.43436,-1.88251 -0.18746,-3.96601 -1.52682,-5.33866 -0.29536,-0.3027 -0.66391,-0.52411 -0.99587,-0.78616 -0.36984,-0.17609 -0.7237,-0.39071 -1.10954,-0.52826 -1.3261,-0.47273 -2.86119,-0.44387 -4.16711,0.0837 -0.23507,0.095 -0.4464,0.2405 -0.66959,0.36075 -1.32464,0.8643 -0.10233,2.73763 1.22231,1.87332 z" /><path
         style="opacity:1;fill:#ffffff;stroke-width:0.264583"
         id="path13853"
         d="m 149.5006,215.34126 c 1.49216,-0.19899 2.99854,-0.36479 4.45459,-0.75666 0.71351,-0.70285 0.4303,-0.29006 0.83002,-1.25161 0.30004,-0.10365 0.15344,-0.52797 -0.14659,-0.42432 v 0 c -0.71795,-0.56497 -0.33929,-0.34406 -1.1243,-0.68234 -1.42435,0.14537 -2.8254,0.46349 -4.25335,0.5855 -1.78858,0.16944 -1.54895,2.69887 0.23963,2.52943 z" /><path
         style="opacity:1;fill:#ffffff;stroke-width:0.264583"
         id="path13859"
         d="m 153.83436,208.95048 c -0.34161,2.06501 -0.32817,4.17092 -0.37641,6.25804 0.0101,0.55159 -0.006,2.13036 0.17785,2.68569 0.14294,0.43198 0.44873,0.79171 0.67309,1.18758 -0.0269,0.59975 0.82131,0.63776 0.84819,0.038 v 0 c 0.25884,-0.37374 0.59573,-0.70409 0.77654,-1.12122 0.24343,-0.5616 0.35656,-2.12335 0.41557,-2.69366 0.0877,-2.01421 0.14781,-4.02972 0.28188,-6.04172 0.22112,-1.97758 -2.57559,-2.29028 -2.79671,-0.31271 z" /><path
         style="opacity:1;fill:#ffffff;stroke-width:0.264583"
         id="path13867"
         d="m 136.9221,226.1939 c -0.8411,-0.27214 -1.87449,-0.41559 -2.75424,-0.34707 -0.2737,0.0213 -0.54343,0.0784 -0.81515,0.11757 -0.97299,0.23776 -2.00979,0.6017 -2.63877,1.44126 -0.16739,0.22343 -0.32144,0.46793 -0.40001,0.73582 -0.0877,0.29902 -0.0592,0.62042 -0.0888,0.93063 0.10539,0.29879 0.16348,0.61875 0.31616,0.89636 0.64921,1.18042 2.51946,2.02925 3.67821,2.61395 0.90663,0.50475 1.99573,0.9086 2.7242,1.6811 0.3237,0.34326 0.3299,0.29138 0.0897,0.3735 -0.0617,0.0344 -0.16568,-0.27029 -0.2812,-0.23235 -0.10944,0.0359 -0.18821,0.13325 -0.28695,0.19257 -0.18567,0.11154 -0.36859,0.22992 -0.56571,0.31967 -0.88312,0.40209 -0.95789,0.34435 -1.97636,0.52984 -1.23291,0.0748 -1.52014,0.1197 -2.76779,0.0826 -1.43457,-0.0427 -1.2467,-0.14031 -2.64414,-0.0931 -0.37448,0.0127 -0.74692,0.0607 -1.12038,0.0911 -0.91831,-0.26132 -1.28787,1.03737 -0.36956,1.29869 v 0 c 0.34991,0.23621 0.6745,0.51516 1.04974,0.70863 1.44478,0.74494 3.12013,0.94877 4.72547,0.90434 0.57476,-0.0159 1.14489,-0.108 1.71733,-0.162 0.54442,-0.1236 1.10101,-0.20234 1.63327,-0.37079 1.44339,-0.45681 3.31981,-1.56203 3.59044,-3.2142 0.0629,-0.38384 -0.0563,-0.77587 -0.0844,-1.1638 -0.17645,-0.29139 -0.31395,-0.61026 -0.52933,-0.87418 -0.1661,-0.20353 -0.39044,-0.35267 -0.60056,-0.51035 -0.9742,-0.73107 -2.10996,-1.20775 -3.17843,-1.77612 -0.56567,-0.28961 -0.92307,-0.45977 -1.45933,-0.78042 -0.62717,-0.37501 -0.38937,-0.24889 -0.88812,-0.61742 -0.0503,-0.0372 -0.0941,-0.10692 -0.15663,-0.10356 -0.043,0.002 -0.0389,0.0767 -0.0584,0.11509 -0.068,0.0991 -0.18044,0.30206 -0.20161,0.17171 -0.0366,-0.22548 0.9896,-0.56099 1.14517,-0.59491 0.14677,-0.021 0.29235,-0.0536 0.44032,-0.0631 0.69665,-0.045 1.38381,0.12431 2.0759,0.15414 1.7361,0.48076 2.41599,-1.97446 0.67988,-2.45521 z" /><path
         style="opacity:1;fill:#ffffff;stroke-width:0.264583"
         id="path13869"
         d="m 143.8055,230.09599 c 0.12109,-0.003 0.24259,7.9e-4 0.36327,-0.01 0.55557,-0.048 1.10777,-0.12956 1.66259,-0.18549 0.42359,-0.0427 1.87884,-0.16653 2.27661,-0.24579 0.36717,-0.0731 0.72009,-0.20523 1.08014,-0.30785 0.29502,-0.21446 0.59005,-0.42892 0.88508,-0.64339 0.65144,-0.0416 0.59256,-0.96291 -0.0589,-0.92127 v 0 c -0.32235,-0.175 -0.6447,-0.35 -0.96705,-0.525 -0.37515,-0.0531 -0.74711,-0.13874 -1.12544,-0.1592 -0.40373,-0.0218 -0.80871,0.0123 -1.21251,0.0327 -0.38676,0.0196 -0.77271,0.0534 -1.15848,0.0873 -0.50929,0.0448 -1.35302,0.12547 -1.87713,0.23501 -0.20659,0.0432 -0.40604,0.11539 -0.60906,0.17309 -1.74627,0.52386 -1.00541,2.99346 0.74086,2.4696 z" /><path
         style="opacity:1;fill:#ffffff;stroke-width:0.264583"
         id="path13871"
         d="m 145.58992,228.73438 c -0.0392,0.20277 -0.0958,0.40294 -0.11755,0.60831 -0.0143,0.13445 -0.0614,1.7097 -0.0628,1.76339 -0.028,1.09979 -0.0344,2.19979 -0.0404,3.29986 0.0115,0.45013 -0.004,1.50938 0.16391,1.97056 0.1949,0.5348 0.68469,1.00059 1.05305,1.4081 -0.007,0.0969 0.13013,0.10679 0.13709,0.01 v 0 c 0.47396,-0.40933 0.95679,-0.73955 1.22333,-1.34218 0.21745,-0.49165 0.23007,-1.50109 0.2612,-2.00193 0.0283,-1.0932 0.062,-2.18649 0.0827,-3.27986 0.006,-0.31104 0.007,-0.62215 0.0122,-0.9332 0.004,-0.25988 0.0257,-0.51992 0.0146,-0.77959 -0.008,-0.18284 -0.0473,-0.36295 -0.0709,-0.54442 0.1265,-1.87838 -2.52993,-2.05726 -2.65642,-0.17889 z" /><path
         style="opacity:1;fill:#ffffff;stroke-width:0.264583"
         id="path13873"
         d="m 151.04328,231.52602 c -0.17378,1.12382 -0.0815,2.33628 0.42626,3.37101 0.1511,0.30794 0.36352,0.58178 0.54528,0.87268 0.27628,0.25091 0.50219,0.57221 0.82884,0.75275 1.54876,0.856 3.01377,0.4331 4.26214,-0.72365 0.90199,-0.83578 1.03799,-1.46354 1.49428,-2.54229 -0.0789,-0.46437 -0.15779,-0.92875 -0.23669,-1.39313 0.26861,-0.94835 -1.07255,-1.32823 -1.34117,-0.37988 v 0 c -0.27034,0.21154 -0.54069,0.42307 -0.81103,0.63461 -0.14174,0.24808 -0.26931,0.5048 -0.42522,0.74422 -0.0965,0.14816 -0.61139,0.82627 -0.79017,1.024 -0.0661,0.0731 -0.14579,0.1328 -0.21734,0.20064 -0.0495,0.0469 -0.0778,0.13814 -0.14574,0.14359 -0.0987,0.008 -0.18405,-0.0732 -0.27608,-0.10975 -0.089,-0.0936 -0.19426,-0.17404 -0.2669,-0.28082 -0.41366,-0.60804 -0.3969,-1.36887 -0.37342,-2.06902 0.17321,-1.89013 -2.49983,-2.13509 -2.67304,-0.24496 z" /><path
         style="opacity:1;fill:#ffffff;stroke-width:0.264583"
         id="path13875"
         d="m 162.3711,229.033 c -0.27038,0.82066 -0.3026,1.70436 -0.32837,2.56054 -0.0172,0.57021 -0.0519,1.67028 0.1335,2.24244 0.10322,0.31853 0.32645,0.58472 0.48967,0.87707 -0.0582,0.93354 1.26196,1.01593 1.32022,0.0824 v 0 c 0.19882,-0.27801 0.45522,-0.52279 0.59646,-0.83402 0.14635,-0.32251 0.18993,-0.68359 0.25058,-1.03252 0.0653,-0.37552 0.0896,-0.75707 0.12639,-1.13644 0.0786,-0.81033 0.16123,-1.63401 0.0772,-2.44767 0.22047,-1.88494 -2.44523,-2.19672 -2.66569,-0.31179 z" /><path
         style="opacity:1;fill:#ffffff;stroke-width:0.264583"
         id="path13877"
         d="m 162.89488,228.32913 c 0.0305,0.0181 0.0562,0.0569 0.0916,0.0544 0.12935,-0.009 0.24969,-0.0782 0.37902,-0.0877 0.66661,-0.0486 1.50149,0.16511 2.06837,0.50774 0.2628,0.15884 0.48018,0.3829 0.72027,0.57435 0.69147,0.6969 1.39622,1.43579 1.50278,2.46402 0.0236,0.22765 0.005,0.46452 -0.0604,0.68394 -0.13284,0.44778 -0.38776,0.54745 -0.73389,0.80398 -1.36991,0.8155 -2.95816,1.06738 -4.50268,1.33963 -0.39526,0.0697 -0.81347,0.059 -1.18583,0.20871 -0.34916,0.14043 -0.61925,0.42786 -0.92887,0.6418 -0.77851,0.0109 -0.76315,1.11183 0.0154,1.10097 v 0 c 0.37099,0.20443 0.70172,0.51179 1.11297,0.6133 0.51569,0.12728 2.45359,-0.11201 2.88951,-0.17648 1.01251,-0.14975 2.4249,-0.4085 3.36141,-0.8357 0.52469,-0.23934 0.97976,-0.60857 1.46964,-0.91286 0.34583,-0.44811 0.78413,-0.83817 1.03747,-1.34434 1.02842,-2.05473 0.1162,-4.27759 -1.31837,-5.83867 -0.35384,-0.38503 -0.77244,-0.70508 -1.15866,-1.05762 -0.45185,-0.25813 -0.87874,-0.56592 -1.35554,-0.77438 -1.13175,-0.49482 -2.40405,-0.59756 -3.60568,-0.3494 -0.29037,0.06 -0.58135,0.13717 -0.84956,0.26358 -0.2324,0.10953 -0.42359,0.29087 -0.63538,0.4363 -1.19106,1.19251 0.49541,2.87692 1.68646,1.68441 z" /><path
         style="opacity:1;fill:#ffffff;stroke-width:0.264583"
         id="path13883"
         d="m 182.79435,228.33956 c -0.15141,0.066 -0.3118,0.11431 -0.45425,0.19791 -0.81873,0.48047 -1.56366,1.39858 -1.9228,2.26672 -0.12436,0.30061 -0.1886,0.62271 -0.28289,0.93407 -0.0192,0.34352 -0.0899,0.68803 -0.0575,1.03056 0.11931,1.26286 0.73063,2.27375 1.7129,3.05784 0.811,0.64738 1.27983,0.74277 2.22984,1.10587 0.39627,0.0787 0.78641,0.20007 1.1888,0.2361 1.21555,0.10882 2.45688,-0.15127 3.51118,-0.77067 0.88872,-0.52212 0.98768,-0.7636 1.64602,-1.52871 0.41989,-1.10485 0.77616,-1.54854 0.4459,-2.80153 -0.44634,-1.69342 -1.9203,-2.95937 -3.47135,-3.62516 -0.52594,-0.22576 -1.09899,-0.32022 -1.64848,-0.48033 -2.01252,-0.21191 -1.05904,-0.39056 -2.86001,0.53822 -0.62245,-0.0293 -0.66394,0.85095 -0.0415,0.88028 v 0 c 1.29739,1.05485 0.57931,0.70404 2.134,1.0929 1.15531,0.37749 1.87297,0.57987 2.81355,1.38882 0.15064,0.12956 0.31231,0.25845 0.41316,0.42964 0.18582,0.31542 0.1183,0.55524 0.088,0.88109 -0.26531,0.39365 -0.30571,0.52551 -0.70538,0.81485 -0.52605,0.38082 -1.17388,0.5491 -1.81982,0.50481 -0.25337,-0.0174 -0.50046,-0.0868 -0.75069,-0.13015 -0.76739,-0.26253 -1.50295,-0.4922 -1.94207,-1.22773 -0.0625,-0.10469 -0.12215,-0.21407 -0.15411,-0.33174 -0.0337,-0.12393 -0.0267,-0.25545 -0.0401,-0.38317 0.0704,-0.50593 0.13252,-0.75591 0.4357,-1.18361 0.36415,-0.51372 0.11487,-0.099 0.44964,-0.49817 0.0337,-0.0402 0.0536,-0.0902 0.0804,-0.13537 1.60043,-0.70577 0.60232,-2.96911 -0.9981,-2.26334 z" /><circle
         id="path13911"
         style="fill:#ffffff;stroke:#000000;stroke-width:0.264583"
         cx="181.16051"
         cy="236.98752"
         r="0.017483583" /><path
         style="opacity:1;fill:#ffffff;stroke-width:0.264583"
         id="path13947"
         d="m 174.08489,230.74156 c -0.0334,0.0676 -0.0717,0.13303 -0.10025,0.20282 -0.0939,0.22931 -0.1401,0.42442 -0.20728,0.66559 -0.14529,0.52156 -0.25608,1.0387 -0.35607,1.57103 -0.19496,1.29195 -0.57405,2.88976 0.52977,3.92625 0.30784,0.28907 0.73815,0.41044 1.10722,0.61566 0.79171,-0.0519 1.31748,0.0963 1.86757,-0.62232 0.21713,-0.28363 0.2573,-0.66645 0.38595,-0.99968 0.29855,-0.11277 0.13906,-0.53498 -0.15948,-0.42221 v 0 c -0.2178,-0.20236 -0.44031,-0.39976 -0.6534,-0.60708 -0.1049,-0.10206 -0.22198,-0.19674 -0.30004,-0.32054 -0.0184,-0.0291 0.0247,-0.0643 0.0371,-0.0965 0.22352,0.24583 0.35154,0.28054 0.32428,0.63775 -0.003,0.0348 -0.0837,0.0905 -0.0885,0.0559 -0.0213,-0.15326 0.0167,-0.30912 0.0319,-0.46311 0.0361,-0.36552 0.0995,-0.76907 0.15266,-1.13207 0.0795,-0.48405 0.16126,-0.96699 0.23522,-1.45187 0.0363,-0.23768 0.073,-0.40288 0.0878,-0.63868 0.005,-0.0723 2.7e-4,-0.14488 5.3e-4,-0.21732 0.49755,-2.04697 -2.39731,-2.75061 -2.89486,-0.70363 z" /><path
         style="opacity:1;fill:#ffffff;stroke-width:0.264583"
         id="path13957"
         d="m 174.82612,228.06151 c 0.14172,0.0491 0.27559,0.13628 0.42517,0.14724 0.21079,0.0154 1.08026,-0.18089 1.22548,-0.24287 0.25644,-0.10944 0.57172,-0.18981 0.71981,-0.42604 0.27536,-0.43926 0.31704,-0.9872 0.47556,-1.4808 0.0566,-0.0127 0.0386,-0.0927 -0.018,-0.08 v 0 c -0.36276,-0.37657 -0.64286,-0.85584 -1.08828,-1.1297 -0.34891,-0.21452 -1.11647,-0.0138 -1.47941,0.0842 -0.16055,0.0434 -0.33307,0.0675 -0.47392,0.15588 -0.10022,0.0629 -0.14615,0.18613 -0.21923,0.27919 -1.9042,0.30602 -1.47141,2.99896 0.43278,2.69294 z" /></g></g></svg>
